<svg width="54" height="137" viewBox="0 0 54 137" fill="none" xmlns="http://www.w3.org/2000/svg">
<ellipse cx="27" cy="21.5" rx="27" ry="21.5" transform="rotate(180 27 21.5)" fill="#170F0F"/>
<line x1="2.5" y1="20" x2="2.50001" y2="137" stroke="#170F0F" stroke-width="5"/>
<path d="M24.048 30C23.808 30 23.688 29.912 23.688 29.736C23.688 29.56 23.792 29.464 24 29.448L25.08 29.28C25.4 29.232 25.616 29.152 25.728 29.04C25.84 28.912 25.896 28.68 25.896 28.344V22.68C25.896 22.328 25.816 21.984 25.656 21.648L22.128 14.256C22.016 13.984 21.888 13.776 21.744 13.632C21.6 13.488 21.392 13.384 21.12 13.32L20.904 13.272C20.68 13.224 20.568 13.12 20.568 12.96C20.568 12.8 20.688 12.72 20.928 12.72H25.032C25.256 12.72 25.368 12.808 25.368 12.984C25.368 13.16 25.232 13.256 24.96 13.272L24.504 13.32C24.232 13.336 24.04 13.424 23.928 13.584C23.816 13.744 23.84 13.992 24 14.328L26.952 20.616C27.016 20.728 27.096 20.784 27.192 20.784C27.288 20.784 27.368 20.728 27.432 20.616L30.264 14.832C30.472 14.416 30.52 14.08 30.408 13.824C30.312 13.552 30.08 13.392 29.712 13.344L29.184 13.272C28.912 13.224 28.776 13.128 28.776 12.984C28.776 12.808 28.888 12.72 29.112 12.72H32.52C32.76 12.72 32.88 12.8 32.88 12.96C32.88 13.12 32.768 13.224 32.544 13.272L32.304 13.32C32.08 13.368 31.88 13.504 31.704 13.728C31.544 13.952 31.328 14.328 31.056 14.856L27.912 21.168C27.8 21.392 27.72 21.608 27.672 21.816C27.624 22.008 27.6 22.232 27.6 22.488V28.344C27.6 28.68 27.656 28.912 27.768 29.04C27.896 29.152 28.112 29.232 28.416 29.28L29.496 29.448C29.704 29.464 29.808 29.56 29.808 29.736C29.808 29.912 29.688 30 29.448 30H24.048Z" fill="#B89783"/>
</svg>
