<svg width="54" height="137" viewBox="0 0 54 137" fill="none" xmlns="http://www.w3.org/2000/svg">
<ellipse cx="27" cy="115.5" rx="27" ry="21.5" fill="#170F0F"/>
<line x1="51.5" y1="117" x2="51.5" y2="1.09278e-07" stroke="#170F0F" stroke-width="5"/>
<path d="M20.928 124C20.688 124 20.568 123.92 20.568 123.76C20.568 123.6 20.68 123.496 20.904 123.448L21.264 123.376C21.584 123.312 21.824 123.16 21.984 122.92C22.144 122.664 22.28 122.312 22.392 121.864L26.112 106.864C26.144 106.704 26.192 106.6 26.256 106.552C26.336 106.504 26.408 106.48 26.472 106.48C26.552 106.48 26.624 106.504 26.688 106.552C26.768 106.6 26.824 106.704 26.856 106.864L30.648 122.08C30.76 122.528 30.888 122.84 31.032 123.016C31.176 123.192 31.4 123.312 31.704 123.376L32.064 123.448C32.288 123.496 32.4 123.6 32.4 123.76C32.4 123.92 32.28 124 32.04 124H27.936C27.712 124 27.6 123.912 27.6 123.736C27.6 123.56 27.736 123.464 28.008 123.448L28.464 123.4C28.736 123.368 28.904 123.28 28.968 123.136C29.048 122.992 29.048 122.744 28.968 122.392L28.056 118.672C27.96 118.256 27.696 118.048 27.264 118.048H24.744C24.328 118.048 24.064 118.256 23.952 118.672L23.136 121.888C22.896 122.8 23.136 123.304 23.856 123.4L24.216 123.448C24.488 123.496 24.624 123.592 24.624 123.736C24.624 123.912 24.512 124 24.288 124H20.928ZM24.672 117.328H27.312C27.568 117.328 27.672 117.192 27.624 116.92L26.088 110.488H25.968L24.36 116.92C24.312 117.192 24.416 117.328 24.672 117.328Z" fill="#B89783"/>
</svg>
